<svg xmlns="http://www.w3.org/2000/svg" xmlns:xlink="http://www.w3.org/1999/xlink" width="321" zoomAndPan="magnify" viewBox="0 0 240.75 141.750002" height="188" preserveAspectRatio="xMidYMid meet" version="1.0"><defs><g/><clipPath id="a671aafb6f"><path d="M 0.0859375 0 L 240.414062 0 L 240.414062 141.5 L 0.0859375 141.5 Z M 0.0859375 0 " clip-rule="nonzero"/></clipPath><clipPath id="3d2b8beb00"><path d="M 88.921875 19.929688 L 119.277344 19.929688 L 119.277344 50.285156 L 88.921875 50.285156 Z M 88.921875 19.929688 " clip-rule="nonzero"/></clipPath><clipPath id="728f60016a"><path d="M 104.101562 19.929688 C 95.71875 19.929688 88.921875 26.722656 88.921875 35.105469 C 88.921875 43.488281 95.71875 50.285156 104.101562 50.285156 C 112.484375 50.285156 119.277344 43.488281 119.277344 35.105469 C 119.277344 26.722656 112.484375 19.929688 104.101562 19.929688 Z M 104.101562 19.929688 " clip-rule="nonzero"/></clipPath><clipPath id="995ad77407"><path d="M 106.59375 40.054688 L 113.765625 40.054688 L 113.765625 47.230469 L 106.59375 47.230469 Z M 106.59375 40.054688 " clip-rule="nonzero"/></clipPath><clipPath id="f111c4a872"><path d="M 110.179688 40.054688 C 108.199219 40.054688 106.59375 41.660156 106.59375 43.640625 C 106.59375 45.625 108.199219 47.230469 110.179688 47.230469 C 112.160156 47.230469 113.765625 45.625 113.765625 43.640625 C 113.765625 41.660156 112.160156 40.054688 110.179688 40.054688 Z M 110.179688 40.054688 " clip-rule="nonzero"/></clipPath><clipPath id="eb596665a2"><path d="M 106.59375 40.054688 L 113.765625 40.054688 L 113.765625 47.226562 L 106.59375 47.226562 Z M 106.59375 40.054688 " clip-rule="nonzero"/></clipPath><clipPath id="0a761f9c03"><path d="M 110.179688 40.054688 C 108.199219 40.054688 106.59375 41.660156 106.59375 43.640625 C 106.59375 45.621094 108.199219 47.226562 110.179688 47.226562 C 112.160156 47.226562 113.765625 45.621094 113.765625 43.640625 C 113.765625 41.660156 112.160156 40.054688 110.179688 40.054688 Z M 110.179688 40.054688 " clip-rule="nonzero"/></clipPath><clipPath id="8458f38090"><path d="M 79.179688 50.761719 L 105 50.761719 L 105 74.71875 L 79.179688 74.71875 Z M 79.179688 50.761719 " clip-rule="nonzero"/></clipPath></defs><g clip-path="url(#a671aafb6f)"><path fill="#ffffff" d="M 0.0859375 0 L 240.414062 0 L 240.414062 141.5 L 0.0859375 141.5 Z M 0.0859375 0 " fill-opacity="1" fill-rule="nonzero"/><path fill="#ffffff" d="M 0.0859375 0 L 240.414062 0 L 240.414062 141.5 L 0.0859375 141.5 Z M 0.0859375 0 " fill-opacity="1" fill-rule="nonzero"/></g><g fill="#ffbd59" fill-opacity="1"><g transform="translate(101.993915, 84.040784)"><g><path d="M 48 0 L 32.671875 0 L 14.671875 -20.71875 L 14.671875 0 L 3.546875 0 L 3.546875 -48.828125 L 14.671875 -48.828125 L 14.671875 -28.890625 L 31.421875 -48.828125 L 44.921875 -48.828125 L 25.265625 -25.6875 Z M 48 0 "/></g></g></g><g clip-path="url(#3d2b8beb00)"><g clip-path="url(#728f60016a)"><path fill="#ffffff" d="M 88.921875 19.929688 L 119.277344 19.929688 L 119.277344 50.285156 L 88.921875 50.285156 Z M 88.921875 19.929688 " fill-opacity="1" fill-rule="nonzero"/></g></g><g clip-path="url(#995ad77407)"><g clip-path="url(#f111c4a872)"><path fill="#ff914d" d="M 106.59375 40.054688 L 113.765625 40.054688 L 113.765625 47.230469 L 106.59375 47.230469 Z M 106.59375 40.054688 " fill-opacity="1" fill-rule="nonzero"/></g></g><g clip-path="url(#eb596665a2)"><g clip-path="url(#0a761f9c03)"><path stroke-linecap="butt" transform="matrix(0.74868, 0, 0, 0.74868, 106.593979, 40.055738)" fill="none" stroke-linejoin="miter" d="M 4.789377 -0.00140293 C 2.144095 -0.00140293 -0.000305702 2.142997 -0.000305702 4.78828 C -0.000305702 7.433562 2.144095 9.577962 4.789377 9.577962 C 7.434659 9.577962 9.57906 7.433562 9.57906 4.78828 C 9.57906 2.142997 7.434659 -0.00140293 4.789377 -0.00140293 Z M 4.789377 -0.00140293 " stroke="#000000" stroke-width="2" stroke-opacity="1" stroke-miterlimit="4"/></g></g><g clip-path="url(#8458f38090)"><path fill="#ffa306" d="M 79.003906 50.761719 C 87.765625 57.078125 109.855469 56.929688 103.640625 74.703125 C 103.222656 73.734375 102.777344 72.769531 102.355469 71.796875 C 103.050781 71.125 103.179688 69.292969 102.019531 69.25 C 102.355469 69.714844 102.398438 71.335938 101.304688 70.933594 C 101.640625 69.398438 101.703125 67.925781 101.578125 66.449219 C 101.390625 67.585938 101.558594 69.839844 100.105469 69.480469 C 100.757812 68.132812 101.011719 66.703125 101.179688 65.25 C 100.589844 66.660156 100.144531 69.441406 98.378906 68.515625 C 99.386719 67.230469 100.105469 65.714844 100.589844 64.007812 C 99.683594 65.398438 98.125 69.230469 96.355469 67.503906 C 97.957031 66.34375 99.21875 64.808594 100.527344 63.269531 C 97.21875 65.902344 96.671875 67.585938 93.09375 66.746094 C 95.554688 65.714844 97.832031 64.40625 99.832031 62.660156 C 95.617188 64.511719 93.367188 66.660156 89.46875 64.765625 C 92.964844 64.027344 96.25 62.953125 99.261719 61.5 C 97.113281 61.902344 85.636719 65.1875 85.46875 61.417969 C 89.996094 61.734375 94.144531 61.566406 97.808594 60.785156 C 94.4375 60.636719 81.300781 61.648438 82.140625 56.785156 C 87.195312 58.425781 92.1875 59.332031 97.15625 59.964844 C 91.300781 58.34375 79.402344 57.3125 79.003906 50.761719 " fill-opacity="1" fill-rule="evenodd"/></g><g fill="#000000" fill-opacity="1"><g transform="translate(105.754297, 99.495896)"><g><path d="M 3.109375 -3.375 L 6.109375 0 L 4.46875 0 L 2.28125 -2.53125 L 1.734375 -1.984375 L 1.734375 0 L 0.40625 0 L 0.40625 -6.203125 L 1.734375 -6.203125 L 1.734375 -3.6875 L 4.234375 -6.203125 L 5.9375 -6.203125 Z M 3.109375 -3.375 "/></g></g></g><g fill="#000000" fill-opacity="1"><g transform="translate(113.186724, 99.495896)"><g><path d="M 3.921875 -6.203125 L 5.234375 -6.203125 L 5.234375 -2.234375 C 5.234375 -1.929688 5.171875 -1.632812 5.046875 -1.34375 C 4.921875 -1.0625 4.742188 -0.8125 4.515625 -0.59375 C 4.296875 -0.375 4.039062 -0.203125 3.75 -0.078125 C 3.457031 0.046875 3.140625 0.109375 2.796875 0.109375 C 2.460938 0.109375 2.144531 0.046875 1.84375 -0.078125 C 1.550781 -0.203125 1.296875 -0.375 1.078125 -0.59375 C 0.859375 -0.8125 0.6875 -1.0625 0.5625 -1.34375 C 0.4375 -1.632812 0.375 -1.929688 0.375 -2.234375 L 0.375 -6.203125 L 1.6875 -6.203125 L 1.6875 -2.5 C 1.6875 -2.320312 1.710938 -2.15625 1.765625 -2 C 1.828125 -1.851562 1.90625 -1.71875 2 -1.59375 C 2.101562 -1.476562 2.222656 -1.382812 2.359375 -1.3125 C 2.503906 -1.238281 2.648438 -1.203125 2.796875 -1.203125 C 2.953125 -1.203125 3.097656 -1.238281 3.234375 -1.3125 C 3.367188 -1.382812 3.488281 -1.476562 3.59375 -1.59375 C 3.695312 -1.71875 3.773438 -1.851562 3.828125 -2 C 3.890625 -2.15625 3.921875 -2.320312 3.921875 -2.5 Z M 3.921875 -6.203125 "/></g></g></g><g fill="#000000" fill-opacity="1"><g transform="translate(119.988869, 99.495896)"><g><path d="M 4.296875 -3.375 C 4.535156 -3.207031 4.726562 -2.988281 4.875 -2.71875 C 5.019531 -2.457031 5.09375 -2.164062 5.09375 -1.84375 C 5.09375 -1.59375 5.039062 -1.351562 4.9375 -1.125 C 4.84375 -0.894531 4.710938 -0.695312 4.546875 -0.53125 C 4.378906 -0.363281 4.179688 -0.234375 3.953125 -0.140625 C 3.734375 -0.046875 3.492188 0 3.234375 0 L 0.421875 0 L 0.421875 -6.203125 L 3.15625 -6.203125 C 3.382812 -6.203125 3.597656 -6.15625 3.796875 -6.0625 C 4.003906 -5.976562 4.1875 -5.859375 4.34375 -5.703125 C 4.5 -5.554688 4.617188 -5.378906 4.703125 -5.171875 C 4.796875 -4.960938 4.84375 -4.742188 4.84375 -4.515625 C 4.84375 -4.265625 4.789062 -4.039062 4.6875 -3.84375 C 4.59375 -3.65625 4.460938 -3.5 4.296875 -3.375 Z M 1.75 -3.875 L 3.15625 -3.875 C 3.3125 -3.875 3.441406 -3.925781 3.546875 -4.03125 C 3.660156 -4.144531 3.71875 -4.28125 3.71875 -4.4375 C 3.71875 -4.601562 3.660156 -4.738281 3.546875 -4.84375 C 3.441406 -4.945312 3.3125 -5 3.15625 -5 L 1.75 -5 Z M 3.234375 -1.203125 C 3.410156 -1.203125 3.5625 -1.273438 3.6875 -1.421875 C 3.8125 -1.566406 3.875 -1.738281 3.875 -1.9375 C 3.875 -2.144531 3.8125 -2.316406 3.6875 -2.453125 C 3.5625 -2.597656 3.410156 -2.671875 3.234375 -2.671875 L 1.75 -2.671875 L 1.75 -1.203125 Z M 3.234375 -1.203125 "/></g></g></g><g fill="#000000" fill-opacity="1"><g transform="translate(126.607185, 99.495896)"><g><path d="M 0.421875 -6.203125 L 4.296875 -6.203125 L 4.296875 -5 L 1.75 -5 L 1.75 -3.875 L 3.984375 -3.875 L 3.984375 -2.671875 L 1.75 -2.671875 L 1.75 -1.203125 L 4.296875 -1.203125 L 4.296875 0 L 0.421875 0 Z M 0.421875 -6.203125 "/></g></g></g><g fill="#000000" fill-opacity="1"><g transform="translate(132.527274, 99.495896)"><g/></g></g><g fill="#000000" fill-opacity="1"><g transform="translate(93.739687, 105.3572)"><g><path d="M 1.078125 -2.71875 L 1.078125 -0.375 L 1.3125 -0.375 L 1.3125 0 L 0.390625 0 L 0.390625 -0.375 L 0.625 -0.375 L 0.625 -2.71875 L 0.390625 -2.71875 L 0.390625 -3.109375 L 1.3125 -3.109375 L 1.3125 -2.71875 Z M 1.078125 -2.71875 "/></g></g></g><g fill="#000000" fill-opacity="1"><g transform="translate(97.846562, 105.3572)"><g><path d="M 2.921875 -3.109375 L 2.921875 0 L 2.453125 0 L 0.71875 -2.375 L 0.71875 0 L 0.25 0 L 0.25 -3.109375 L 0.71875 -3.109375 L 2.453125 -0.703125 L 2.453125 -3.109375 Z M 2.921875 -3.109375 "/></g></g></g><g fill="#000000" fill-opacity="1"><g transform="translate(103.407046, 105.3572)"><g><path d="M 1.34375 0 L 0.0625 -3.109375 L 0.5625 -3.109375 L 1.59375 -0.59375 L 2.640625 -3.109375 L 3.140625 -3.109375 L 1.859375 0 Z M 1.34375 0 "/></g></g></g><g fill="#000000" fill-opacity="1"><g transform="translate(108.998178, 105.3572)"><g><path d="M 2.140625 -3.109375 L 2.140625 -2.6875 L 0.703125 -2.6875 L 0.703125 -1.84375 L 1.984375 -1.84375 L 1.984375 -1.421875 L 0.703125 -1.421875 L 0.703125 -0.421875 L 2.140625 -0.421875 L 2.140625 0 L 0.25 0 L 0.25 -3.109375 Z M 2.140625 -3.109375 "/></g></g></g><g fill="#000000" fill-opacity="1"><g transform="translate(113.788073, 105.3572)"><g><path d="M 2.3125 -0.875 C 2.3125 -0.738281 2.285156 -0.613281 2.234375 -0.5 C 2.179688 -0.394531 2.101562 -0.296875 2 -0.203125 C 1.800781 -0.0351562 1.546875 0.046875 1.234375 0.046875 C 0.984375 0.046875 0.757812 -0.00390625 0.5625 -0.109375 C 0.363281 -0.210938 0.21875 -0.347656 0.125 -0.515625 L 0.515625 -0.71875 C 0.578125 -0.613281 0.671875 -0.53125 0.796875 -0.46875 C 0.921875 -0.414062 1.066406 -0.390625 1.234375 -0.390625 C 1.648438 -0.390625 1.859375 -0.550781 1.859375 -0.875 C 1.859375 -0.9375 1.847656 -0.988281 1.828125 -1.03125 C 1.804688 -1.070312 1.773438 -1.113281 1.734375 -1.15625 C 1.628906 -1.238281 1.441406 -1.316406 1.171875 -1.390625 C 1.003906 -1.429688 0.863281 -1.472656 0.75 -1.515625 C 0.632812 -1.566406 0.539062 -1.628906 0.46875 -1.703125 C 0.28125 -1.847656 0.1875 -2.039062 0.1875 -2.28125 C 0.1875 -2.40625 0.210938 -2.519531 0.265625 -2.625 C 0.316406 -2.738281 0.382812 -2.832031 0.46875 -2.90625 C 0.5625 -2.988281 0.664062 -3.046875 0.78125 -3.078125 C 0.90625 -3.117188 1.039062 -3.140625 1.1875 -3.140625 C 1.394531 -3.140625 1.585938 -3.097656 1.765625 -3.015625 C 1.953125 -2.941406 2.09375 -2.828125 2.1875 -2.671875 L 1.828125 -2.453125 C 1.742188 -2.554688 1.644531 -2.628906 1.53125 -2.671875 C 1.425781 -2.710938 1.3125 -2.734375 1.1875 -2.734375 C 1.09375 -2.734375 1.007812 -2.71875 0.9375 -2.6875 C 0.863281 -2.664062 0.804688 -2.632812 0.765625 -2.59375 C 0.722656 -2.550781 0.691406 -2.503906 0.671875 -2.453125 C 0.648438 -2.410156 0.640625 -2.359375 0.640625 -2.296875 C 0.640625 -2.253906 0.644531 -2.210938 0.65625 -2.171875 C 0.664062 -2.140625 0.691406 -2.101562 0.734375 -2.0625 C 0.785156 -2.019531 0.851562 -1.976562 0.9375 -1.9375 C 1.019531 -1.894531 1.132812 -1.851562 1.28125 -1.8125 C 1.457031 -1.769531 1.601562 -1.722656 1.71875 -1.671875 C 1.84375 -1.617188 1.945312 -1.5625 2.03125 -1.5 C 2.21875 -1.34375 2.3125 -1.132812 2.3125 -0.875 Z M 2.3125 -0.875 "/></g></g></g><g fill="#000000" fill-opacity="1"><g transform="translate(118.713699, 105.3572)"><g><path d="M 0.859375 -2.6875 L 0.015625 -2.6875 L 0.015625 -3.109375 L 2.15625 -3.109375 L 2.15625 -2.6875 L 1.3125 -2.6875 L 1.3125 0 L 0.859375 0 Z M 0.859375 -2.6875 "/></g></g></g><g fill="#000000" fill-opacity="1"><g transform="translate(123.385378, 105.3572)"><g><path d="M 2.890625 -3.109375 L 3.34375 -3.109375 L 3.34375 0 L 2.890625 0 L 2.890625 -2.375 L 1.984375 -1.140625 L 1.625 -1.140625 L 0.71875 -2.375 L 0.71875 0 L 0.265625 0 L 0.265625 -3.109375 L 0.71875 -3.109375 L 1.8125 -1.609375 Z M 2.890625 -3.109375 "/></g></g></g><g fill="#000000" fill-opacity="1"><g transform="translate(129.383699, 105.3572)"><g><path d="M 2.140625 -3.109375 L 2.140625 -2.6875 L 0.703125 -2.6875 L 0.703125 -1.84375 L 1.984375 -1.84375 L 1.984375 -1.421875 L 0.703125 -1.421875 L 0.703125 -0.421875 L 2.140625 -0.421875 L 2.140625 0 L 0.25 0 L 0.25 -3.109375 Z M 2.140625 -3.109375 "/></g></g></g><g fill="#000000" fill-opacity="1"><g transform="translate(134.173594, 105.3572)"><g><path d="M 2.921875 -3.109375 L 2.921875 0 L 2.453125 0 L 0.71875 -2.375 L 0.71875 0 L 0.25 0 L 0.25 -3.109375 L 0.71875 -3.109375 L 2.453125 -0.703125 L 2.453125 -3.109375 Z M 2.921875 -3.109375 "/></g></g></g><g fill="#000000" fill-opacity="1"><g transform="translate(139.734079, 105.3572)"><g><path d="M 0.859375 -2.6875 L 0.015625 -2.6875 L 0.015625 -3.109375 L 2.15625 -3.109375 L 2.15625 -2.6875 L 1.3125 -2.6875 L 1.3125 0 L 0.859375 0 Z M 0.859375 -2.6875 "/></g></g></g><g fill="#000000" fill-opacity="1"><g transform="translate(144.405755, 105.3572)"><g><path d="M 2.3125 -0.875 C 2.3125 -0.738281 2.285156 -0.613281 2.234375 -0.5 C 2.179688 -0.394531 2.101562 -0.296875 2 -0.203125 C 1.800781 -0.0351562 1.546875 0.046875 1.234375 0.046875 C 0.984375 0.046875 0.757812 -0.00390625 0.5625 -0.109375 C 0.363281 -0.210938 0.21875 -0.347656 0.125 -0.515625 L 0.515625 -0.71875 C 0.578125 -0.613281 0.671875 -0.53125 0.796875 -0.46875 C 0.921875 -0.414062 1.066406 -0.390625 1.234375 -0.390625 C 1.648438 -0.390625 1.859375 -0.550781 1.859375 -0.875 C 1.859375 -0.9375 1.847656 -0.988281 1.828125 -1.03125 C 1.804688 -1.070312 1.773438 -1.113281 1.734375 -1.15625 C 1.628906 -1.238281 1.441406 -1.316406 1.171875 -1.390625 C 1.003906 -1.429688 0.863281 -1.472656 0.75 -1.515625 C 0.632812 -1.566406 0.539062 -1.628906 0.46875 -1.703125 C 0.28125 -1.847656 0.1875 -2.039062 0.1875 -2.28125 C 0.1875 -2.40625 0.210938 -2.519531 0.265625 -2.625 C 0.316406 -2.738281 0.382812 -2.832031 0.46875 -2.90625 C 0.5625 -2.988281 0.664062 -3.046875 0.78125 -3.078125 C 0.90625 -3.117188 1.039062 -3.140625 1.1875 -3.140625 C 1.394531 -3.140625 1.585938 -3.097656 1.765625 -3.015625 C 1.953125 -2.941406 2.09375 -2.828125 2.1875 -2.671875 L 1.828125 -2.453125 C 1.742188 -2.554688 1.644531 -2.628906 1.53125 -2.671875 C 1.425781 -2.710938 1.3125 -2.734375 1.1875 -2.734375 C 1.09375 -2.734375 1.007812 -2.71875 0.9375 -2.6875 C 0.863281 -2.664062 0.804688 -2.632812 0.765625 -2.59375 C 0.722656 -2.550781 0.691406 -2.503906 0.671875 -2.453125 C 0.648438 -2.410156 0.640625 -2.359375 0.640625 -2.296875 C 0.640625 -2.253906 0.644531 -2.210938 0.65625 -2.171875 C 0.664062 -2.140625 0.691406 -2.101562 0.734375 -2.0625 C 0.785156 -2.019531 0.851562 -1.976562 0.9375 -1.9375 C 1.019531 -1.894531 1.132812 -1.851562 1.28125 -1.8125 C 1.457031 -1.769531 1.601562 -1.722656 1.71875 -1.671875 C 1.84375 -1.617188 1.945312 -1.5625 2.03125 -1.5 C 2.21875 -1.34375 2.3125 -1.132812 2.3125 -0.875 Z M 2.3125 -0.875 "/></g></g></g><g fill="#ffffff" fill-opacity="1"><g transform="translate(132.252689, 99.657408)"><g><path d="M 3.75 -3.734375 C 3.664062 -3.335938 3.488281 -3.015625 3.21875 -2.765625 C 2.945312 -2.515625 2.582031 -2.332031 2.125 -2.21875 L 4.109375 0 L 2.4375 0 L 0.609375 -2.15625 L 0.796875 -3.125 L 1.0625 -3.125 C 1.5625 -3.125 1.890625 -3.175781 2.046875 -3.28125 C 2.210938 -3.394531 2.328125 -3.546875 2.390625 -3.734375 L 0.609375 -3.734375 L 0.609375 -4.75 L 2.375 -4.75 C 2.320312 -4.875 2.25 -4.976562 2.15625 -5.0625 C 2.0625 -5.144531 1.945312 -5.203125 1.8125 -5.234375 C 1.675781 -5.265625 1.472656 -5.28125 1.203125 -5.28125 L 0.609375 -5.28125 L 0.609375 -6.296875 L 5.21875 -6.296875 L 5.21875 -5.28125 L 3.3125 -5.28125 C 3.457031 -5.164062 3.578125 -4.988281 3.671875 -4.75 L 5.21875 -4.75 L 5.21875 -3.734375 Z M 3.75 -3.734375 "/></g></g></g><path stroke-linecap="butt" transform="matrix(0.74868, 0, 0, 0.74868, 88.277707, 96.539742)" fill="none" stroke-linejoin="miter" d="M -0.000485397 0.499974 L 19.82087 0.499974 " stroke="#ffa306" stroke-width="1" stroke-opacity="1" stroke-miterlimit="4"/><path stroke-linecap="butt" transform="matrix(0.74868, 0, 0, 0.74868, 139.38743, 96.539742)" fill="none" stroke-linejoin="miter" d="M -0.00095012 0.499974 L 19.820405 0.499974 " stroke="#ffa306" stroke-width="1" stroke-opacity="1" stroke-miterlimit="4"/><g fill="#000000" fill-opacity="1"><g transform="translate(132.252689, 99.657408)"><g><path d="M 3.75 -3.734375 C 3.664062 -3.335938 3.488281 -3.015625 3.21875 -2.765625 C 2.945312 -2.515625 2.582031 -2.332031 2.125 -2.21875 L 4.109375 0 L 2.4375 0 L 0.609375 -2.15625 L 0.796875 -3.125 L 1.0625 -3.125 C 1.5625 -3.125 1.890625 -3.175781 2.046875 -3.28125 C 2.210938 -3.394531 2.328125 -3.546875 2.390625 -3.734375 L 0.609375 -3.734375 L 0.609375 -4.75 L 2.375 -4.75 C 2.320312 -4.875 2.25 -4.976562 2.15625 -5.0625 C 2.0625 -5.144531 1.945312 -5.203125 1.8125 -5.234375 C 1.675781 -5.265625 1.472656 -5.28125 1.203125 -5.28125 L 0.609375 -5.28125 L 0.609375 -6.296875 L 5.21875 -6.296875 L 5.21875 -5.28125 L 3.3125 -5.28125 C 3.457031 -5.164062 3.578125 -4.988281 3.671875 -4.75 L 5.21875 -4.75 L 5.21875 -3.734375 Z M 3.75 -3.734375 "/></g></g></g></svg>