<svg xmlns="http://www.w3.org/2000/svg" xmlns:xlink="http://www.w3.org/1999/xlink" width="500" zoomAndPan="magnify" viewBox="0 0 375 374.999991" height="500" preserveAspectRatio="xMidYMid meet" version="1.0"><defs><g/><clipPath id="bed72c721e"><path d="M 111.082031 83.394531 L 184.902344 83.394531 L 184.902344 157.214844 L 111.082031 157.214844 Z M 111.082031 83.394531 " clip-rule="nonzero"/></clipPath><clipPath id="39c3ab339f"><path d="M 147.992188 83.394531 C 127.605469 83.394531 111.082031 99.917969 111.082031 120.304688 C 111.082031 140.6875 127.605469 157.214844 147.992188 157.214844 C 168.375 157.214844 184.902344 140.6875 184.902344 120.304688 C 184.902344 99.917969 168.375 83.394531 147.992188 83.394531 Z M 147.992188 83.394531 " clip-rule="nonzero"/></clipPath><clipPath id="61b6a2d4d3"><path d="M 154.054688 132.339844 L 171.496094 132.339844 L 171.496094 149.785156 L 154.054688 149.785156 Z M 154.054688 132.339844 " clip-rule="nonzero"/></clipPath><clipPath id="aee607c0b9"><path d="M 162.777344 132.339844 C 157.957031 132.339844 154.054688 136.246094 154.054688 141.0625 C 154.054688 145.878906 157.957031 149.785156 162.777344 149.785156 C 167.59375 149.785156 171.496094 145.878906 171.496094 141.0625 C 171.496094 136.246094 167.59375 132.339844 162.777344 132.339844 Z M 162.777344 132.339844 " clip-rule="nonzero"/></clipPath><clipPath id="5fdc3fb6e9"><path d="M 154.054688 132.339844 L 171.304688 132.339844 L 171.304688 149.589844 L 154.054688 149.589844 Z M 154.054688 132.339844 " clip-rule="nonzero"/></clipPath><clipPath id="02fe4e21fb"><path d="M 162.773438 132.339844 C 157.957031 132.339844 154.054688 136.242188 154.054688 141.058594 C 154.054688 145.875 157.957031 149.777344 162.773438 149.777344 C 167.585938 149.777344 171.492188 145.875 171.492188 141.058594 C 171.492188 136.242188 167.585938 132.339844 162.773438 132.339844 Z M 162.773438 132.339844 " clip-rule="nonzero"/></clipPath><clipPath id="04c98a5b60"><path d="M 87.058594 158.375 L 150 158.375 L 150 216.875 L 87.058594 216.875 Z M 87.058594 158.375 " clip-rule="nonzero"/></clipPath></defs><rect x="-37.5" width="450" fill="#ffffff" y="-37.499999" height="449.999989" fill-opacity="1"/><rect x="-37.5" width="450" fill="#ffffff" y="-37.499999" height="449.999989" fill-opacity="1"/><g fill="#ffbd59" fill-opacity="1"><g transform="translate(142.867002, 239.305055)"><g><path d="M 116.734375 0 L 79.453125 0 L 35.703125 -50.375 L 35.703125 0 L 8.640625 0 L 8.640625 -118.75 L 35.703125 -118.75 L 35.703125 -70.234375 L 76.4375 -118.75 L 109.25 -118.75 L 61.46875 -62.46875 Z M 116.734375 0 "/></g></g></g><g clip-path="url(#bed72c721e)"><g clip-path="url(#39c3ab339f)"><path fill="#ffffff" d="M 111.082031 83.394531 L 184.902344 83.394531 L 184.902344 157.214844 L 111.082031 157.214844 Z M 111.082031 83.394531 " fill-opacity="1" fill-rule="nonzero"/></g></g><g clip-path="url(#61b6a2d4d3)"><g clip-path="url(#aee607c0b9)"><path fill="#ff914d" d="M 154.054688 132.339844 L 171.496094 132.339844 L 171.496094 149.785156 L 154.054688 149.785156 Z M 154.054688 132.339844 " fill-opacity="1" fill-rule="nonzero"/></g></g><g clip-path="url(#5fdc3fb6e9)"><g clip-path="url(#02fe4e21fb)"><path stroke-linecap="butt" transform="matrix(0.75, 0, 0, 0.75, 154.053628, 132.340391)" fill="none" stroke-linejoin="miter" d="M 11.626413 -0.000729013 C 5.204538 -0.000729013 0.00141269 5.202396 0.00141269 11.624272 C 0.00141269 18.046147 5.204538 23.249273 11.626413 23.249273 C 18.043081 23.249273 23.251414 18.046147 23.251414 11.624272 C 23.251414 5.202396 18.043081 -0.000729013 11.626413 -0.000729013 Z M 11.626413 -0.000729013 " stroke="#000000" stroke-width="4" stroke-opacity="1" stroke-miterlimit="4"/></g></g><g clip-path="url(#04c98a5b60)"><path fill="#ffa306" d="M 86.964844 158.375 C 108.269531 173.742188 162 173.382812 146.890625 216.609375 C 145.863281 214.253906 144.789062 211.898438 143.765625 209.542969 C 145.453125 207.90625 145.761719 203.449219 142.945312 203.34375 C 143.765625 204.472656 143.867188 208.417969 141.203125 207.441406 C 142.023438 203.703125 142.175781 200.117188 141.871094 196.535156 C 141.410156 199.300781 141.820312 204.777344 138.285156 203.910156 C 139.871094 200.628906 140.488281 197.148438 140.894531 193.613281 C 139.460938 197.046875 138.386719 203.804688 134.085938 201.554688 C 136.542969 198.429688 138.285156 194.742188 139.460938 190.589844 C 137.257812 193.972656 133.46875 203.292969 129.167969 199.09375 C 133.058594 196.277344 136.132812 192.539062 139.308594 188.800781 C 131.265625 195.203125 129.933594 199.300781 121.230469 197.25 C 127.222656 194.742188 132.753906 191.566406 137.617188 187.316406 C 127.375 191.820312 121.894531 197.046875 112.417969 192.433594 C 120.921875 190.644531 128.910156 188.03125 136.234375 184.496094 C 131.011719 185.46875 103.097656 193.460938 102.6875 184.292969 C 113.699219 185.0625 123.789062 184.652344 132.699219 182.753906 C 124.503906 182.398438 92.546875 184.855469 94.59375 173.023438 C 106.886719 177.019531 119.027344 179.222656 131.113281 180.757812 C 116.875 176.816406 87.9375 174.304688 86.964844 158.375 " fill-opacity="1" fill-rule="evenodd"/></g><g fill="#000000" fill-opacity="1"><g transform="translate(155.882828, 270.180069)"><g><path d="M 6 -6.5 L 11.78125 0 L 8.625 0 L 4.390625 -4.875 L 3.359375 -3.828125 L 3.359375 0 L 0.796875 0 L 0.796875 -11.96875 L 3.359375 -11.96875 L 3.359375 -7.125 L 8.171875 -11.96875 L 11.4375 -11.96875 Z M 6 -6.5 "/></g></g></g><g fill="#000000" fill-opacity="1"><g transform="translate(170.212489, 270.180069)"><g><path d="M 7.5625 -11.96875 L 10.109375 -11.96875 L 10.109375 -4.3125 C 10.109375 -3.71875 9.984375 -3.144531 9.734375 -2.59375 C 9.484375 -2.039062 9.144531 -1.554688 8.71875 -1.140625 C 8.289062 -0.722656 7.789062 -0.390625 7.21875 -0.140625 C 6.65625 0.0976562 6.050781 0.21875 5.40625 0.21875 C 4.757812 0.21875 4.148438 0.0976562 3.578125 -0.140625 C 3.003906 -0.390625 2.503906 -0.722656 2.078125 -1.140625 C 1.660156 -1.554688 1.328125 -2.039062 1.078125 -2.59375 C 0.828125 -3.144531 0.703125 -3.71875 0.703125 -4.3125 L 0.703125 -11.96875 L 3.25 -11.96875 L 3.25 -4.828125 C 3.25 -4.484375 3.304688 -4.160156 3.421875 -3.859375 C 3.535156 -3.566406 3.6875 -3.304688 3.875 -3.078125 C 4.070312 -2.847656 4.300781 -2.664062 4.5625 -2.53125 C 4.832031 -2.394531 5.113281 -2.328125 5.40625 -2.328125 C 5.707031 -2.328125 5.984375 -2.394531 6.234375 -2.53125 C 6.492188 -2.664062 6.722656 -2.847656 6.921875 -3.078125 C 7.117188 -3.304688 7.273438 -3.566406 7.390625 -3.859375 C 7.503906 -4.160156 7.5625 -4.484375 7.5625 -4.828125 Z M 7.5625 -11.96875 "/></g></g></g><g fill="#000000" fill-opacity="1"><g transform="translate(183.326961, 270.180069)"><g><path d="M 8.28125 -6.515625 C 8.757812 -6.191406 9.140625 -5.769531 9.421875 -5.25 C 9.703125 -4.738281 9.84375 -4.175781 9.84375 -3.5625 C 9.84375 -3.0625 9.742188 -2.59375 9.546875 -2.15625 C 9.359375 -1.726562 9.097656 -1.351562 8.765625 -1.03125 C 8.441406 -0.71875 8.0625 -0.46875 7.625 -0.28125 C 7.195312 -0.09375 6.738281 0 6.25 0 L 0.8125 0 L 0.8125 -11.96875 L 6.078125 -11.96875 C 6.523438 -11.96875 6.945312 -11.878906 7.34375 -11.703125 C 7.738281 -11.523438 8.082031 -11.289062 8.375 -11 C 8.675781 -10.707031 8.910156 -10.363281 9.078125 -9.96875 C 9.242188 -9.570312 9.328125 -9.148438 9.328125 -8.703125 C 9.328125 -8.222656 9.234375 -7.800781 9.046875 -7.4375 C 8.867188 -7.070312 8.613281 -6.765625 8.28125 -6.515625 Z M 3.375 -7.46875 L 6.078125 -7.46875 C 6.378906 -7.46875 6.632812 -7.570312 6.84375 -7.78125 C 7.0625 -8 7.171875 -8.265625 7.171875 -8.578125 C 7.171875 -8.878906 7.0625 -9.128906 6.84375 -9.328125 C 6.632812 -9.535156 6.378906 -9.640625 6.078125 -9.640625 L 3.375 -9.640625 Z M 6.25 -2.3125 C 6.582031 -2.3125 6.863281 -2.453125 7.09375 -2.734375 C 7.332031 -3.023438 7.453125 -3.363281 7.453125 -3.75 C 7.453125 -4.144531 7.332031 -4.472656 7.09375 -4.734375 C 6.863281 -5.003906 6.582031 -5.140625 6.25 -5.140625 L 3.375 -5.140625 L 3.375 -2.3125 Z M 6.25 -2.3125 "/></g></g></g><g fill="#000000" fill-opacity="1"><g transform="translate(196.087006, 270.180069)"><g><path d="M 0.8125 -11.96875 L 8.28125 -11.96875 L 8.28125 -9.640625 L 3.375 -9.640625 L 3.375 -7.46875 L 7.6875 -7.46875 L 7.6875 -5.140625 L 3.375 -5.140625 L 3.375 -2.3125 L 8.28125 -2.3125 L 8.28125 0 L 0.8125 0 Z M 0.8125 -11.96875 "/></g></g></g><g fill="#000000" fill-opacity="1"><g transform="translate(207.49684, 270.180069)"><g><path d="M 9.40625 -8.40625 C 9.40625 -8.019531 9.347656 -7.65625 9.234375 -7.3125 C 9.128906 -6.96875 8.976562 -6.648438 8.78125 -6.359375 C 8.59375 -6.078125 8.363281 -5.828125 8.09375 -5.609375 C 7.820312 -5.390625 7.53125 -5.210938 7.21875 -5.078125 L 11.1875 0 L 8.203125 0 L 4.5 -4.828125 L 3.359375 -4.828125 L 3.359375 0 L 0.796875 0 L 0.796875 -11.96875 L 5.953125 -11.96875 C 6.429688 -11.96875 6.878906 -11.875 7.296875 -11.6875 C 7.722656 -11.5 8.085938 -11.242188 8.390625 -10.921875 C 8.703125 -10.609375 8.945312 -10.234375 9.125 -9.796875 C 9.3125 -9.359375 9.40625 -8.894531 9.40625 -8.40625 Z M 5.640625 -7.15625 C 5.960938 -7.15625 6.238281 -7.273438 6.46875 -7.515625 C 6.707031 -7.753906 6.828125 -8.050781 6.828125 -8.40625 C 6.828125 -8.738281 6.707031 -9.023438 6.46875 -9.265625 C 6.238281 -9.515625 5.960938 -9.640625 5.640625 -9.640625 L 3.359375 -9.640625 L 3.359375 -7.15625 Z M 5.640625 -7.15625 "/></g></g></g><g fill="#373737" fill-opacity="1"><g transform="translate(136.203462, 282.507226)"><g><path d="M 2.09375 -5.25 L 2.09375 -0.71875 L 2.53125 -0.71875 L 2.53125 0 L 0.765625 0 L 0.765625 -0.71875 L 1.21875 -0.71875 L 1.21875 -5.25 L 0.765625 -5.25 L 0.765625 -5.984375 L 2.53125 -5.984375 L 2.53125 -5.25 Z M 2.09375 -5.25 "/></g></g></g><g fill="#373737" fill-opacity="1"><g transform="translate(144.121006, 282.507226)"><g><path d="M 5.625 -5.984375 L 5.625 0 L 4.734375 0 L 1.390625 -4.59375 L 1.390625 0 L 0.46875 0 L 0.46875 -5.984375 L 1.40625 -5.984375 L 4.734375 -1.359375 L 4.734375 -5.984375 Z M 5.625 -5.984375 "/></g></g></g><g fill="#373737" fill-opacity="1"><g transform="translate(154.840929, 282.507226)"><g><path d="M 2.59375 0 L 0.125 -5.984375 L 1.078125 -5.984375 L 3.09375 -1.125 L 5.109375 -5.984375 L 6.0625 -5.984375 L 3.578125 0 Z M 2.59375 0 "/></g></g></g><g fill="#373737" fill-opacity="1"><g transform="translate(165.619937, 282.507226)"><g><path d="M 4.125 -5.984375 L 4.125 -5.1875 L 1.34375 -5.1875 L 1.34375 -3.5625 L 3.828125 -3.5625 L 3.828125 -2.734375 L 1.34375 -2.734375 L 1.34375 -0.8125 L 4.125 -0.8125 L 4.125 0 L 0.46875 0 L 0.46875 -5.984375 Z M 4.125 -5.984375 "/></g></g></g><g fill="#373737" fill-opacity="1"><g transform="translate(174.854261, 282.507226)"><g><path d="M 4.46875 -1.671875 C 4.46875 -1.421875 4.414062 -1.1875 4.3125 -0.96875 C 4.207031 -0.757812 4.054688 -0.570312 3.859375 -0.40625 C 3.472656 -0.0820312 2.976562 0.078125 2.375 0.078125 C 1.894531 0.078125 1.460938 -0.015625 1.078125 -0.203125 C 0.703125 -0.398438 0.425781 -0.660156 0.25 -0.984375 L 1 -1.375 C 1.113281 -1.175781 1.289062 -1.019531 1.53125 -0.90625 C 1.769531 -0.800781 2.050781 -0.75 2.375 -0.75 C 3.1875 -0.75 3.59375 -1.054688 3.59375 -1.671875 C 3.59375 -1.796875 3.570312 -1.898438 3.53125 -1.984375 C 3.488281 -2.066406 3.425781 -2.144531 3.34375 -2.21875 C 3.132812 -2.382812 2.769531 -2.535156 2.25 -2.671875 C 1.9375 -2.753906 1.671875 -2.84375 1.453125 -2.9375 C 1.234375 -3.03125 1.050781 -3.144531 0.90625 -3.28125 C 0.550781 -3.5625 0.375 -3.9375 0.375 -4.40625 C 0.375 -4.644531 0.421875 -4.867188 0.515625 -5.078125 C 0.609375 -5.285156 0.738281 -5.460938 0.90625 -5.609375 C 1.082031 -5.765625 1.285156 -5.878906 1.515625 -5.953125 C 1.742188 -6.023438 2 -6.0625 2.28125 -6.0625 C 2.695312 -6.0625 3.078125 -5.984375 3.421875 -5.828125 C 3.765625 -5.671875 4.023438 -5.445312 4.203125 -5.15625 L 3.53125 -4.734375 C 3.363281 -4.929688 3.171875 -5.070312 2.953125 -5.15625 C 2.742188 -5.238281 2.519531 -5.28125 2.28125 -5.28125 C 2.113281 -5.28125 1.957031 -5.25 1.8125 -5.1875 C 1.675781 -5.132812 1.5625 -5.070312 1.46875 -5 C 1.382812 -4.925781 1.320312 -4.835938 1.28125 -4.734375 C 1.25 -4.640625 1.234375 -4.535156 1.234375 -4.421875 C 1.234375 -4.347656 1.242188 -4.273438 1.265625 -4.203125 C 1.296875 -4.128906 1.351562 -4.050781 1.4375 -3.96875 C 1.519531 -3.882812 1.640625 -3.804688 1.796875 -3.734375 C 1.960938 -3.660156 2.1875 -3.585938 2.46875 -3.515625 C 2.8125 -3.429688 3.097656 -3.335938 3.328125 -3.234375 C 3.554688 -3.140625 3.75 -3.023438 3.90625 -2.890625 C 4.28125 -2.585938 4.46875 -2.179688 4.46875 -1.671875 Z M 4.46875 -1.671875 "/></g></g></g><g fill="#373737" fill-opacity="1"><g transform="translate(184.350254, 282.507226)"><g><path d="M 1.65625 -5.1875 L 0.046875 -5.1875 L 0.046875 -5.984375 L 4.171875 -5.984375 L 4.171875 -5.1875 L 2.546875 -5.1875 L 2.546875 0 L 1.65625 0 Z M 1.65625 -5.1875 "/></g></g></g><g fill="#373737" fill-opacity="1"><g transform="translate(193.356671, 282.507226)"><g><path d="M 5.5625 -5.984375 L 6.453125 -5.984375 L 6.453125 0 L 5.578125 0 L 5.578125 -4.59375 L 3.828125 -2.1875 L 3.140625 -2.1875 L 1.390625 -4.59375 L 1.390625 0 L 0.5 0 L 0.5 -5.984375 L 1.390625 -5.984375 L 3.484375 -3.109375 Z M 5.5625 -5.984375 "/></g></g></g><g fill="#373737" fill-opacity="1"><g transform="translate(204.920689, 282.507226)"><g><path d="M 4.125 -5.984375 L 4.125 -5.1875 L 1.34375 -5.1875 L 1.34375 -3.5625 L 3.828125 -3.5625 L 3.828125 -2.734375 L 1.34375 -2.734375 L 1.34375 -0.8125 L 4.125 -0.8125 L 4.125 0 L 0.46875 0 L 0.46875 -5.984375 Z M 4.125 -5.984375 "/></g></g></g><g fill="#373737" fill-opacity="1"><g transform="translate(214.155012, 282.507226)"><g><path d="M 5.625 -5.984375 L 5.625 0 L 4.734375 0 L 1.390625 -4.59375 L 1.390625 0 L 0.46875 0 L 0.46875 -5.984375 L 1.40625 -5.984375 L 4.734375 -1.359375 L 4.734375 -5.984375 Z M 5.625 -5.984375 "/></g></g></g><g fill="#373737" fill-opacity="1"><g transform="translate(224.874936, 282.507226)"><g><path d="M 1.65625 -5.1875 L 0.046875 -5.1875 L 0.046875 -5.984375 L 4.171875 -5.984375 L 4.171875 -5.1875 L 2.546875 -5.1875 L 2.546875 0 L 1.65625 0 Z M 1.65625 -5.1875 "/></g></g></g><g fill="#373737" fill-opacity="1"><g transform="translate(233.881348, 282.507226)"><g><path d="M 4.46875 -1.671875 C 4.46875 -1.421875 4.414062 -1.1875 4.3125 -0.96875 C 4.207031 -0.757812 4.054688 -0.570312 3.859375 -0.40625 C 3.472656 -0.0820312 2.976562 0.078125 2.375 0.078125 C 1.894531 0.078125 1.460938 -0.015625 1.078125 -0.203125 C 0.703125 -0.398438 0.425781 -0.660156 0.25 -0.984375 L 1 -1.375 C 1.113281 -1.175781 1.289062 -1.019531 1.53125 -0.90625 C 1.769531 -0.800781 2.050781 -0.75 2.375 -0.75 C 3.1875 -0.75 3.59375 -1.054688 3.59375 -1.671875 C 3.59375 -1.796875 3.570312 -1.898438 3.53125 -1.984375 C 3.488281 -2.066406 3.425781 -2.144531 3.34375 -2.21875 C 3.132812 -2.382812 2.769531 -2.535156 2.25 -2.671875 C 1.9375 -2.753906 1.671875 -2.84375 1.453125 -2.9375 C 1.234375 -3.03125 1.050781 -3.144531 0.90625 -3.28125 C 0.550781 -3.5625 0.375 -3.9375 0.375 -4.40625 C 0.375 -4.644531 0.421875 -4.867188 0.515625 -5.078125 C 0.609375 -5.285156 0.738281 -5.460938 0.90625 -5.609375 C 1.082031 -5.765625 1.285156 -5.878906 1.515625 -5.953125 C 1.742188 -6.023438 2 -6.0625 2.28125 -6.0625 C 2.695312 -6.0625 3.078125 -5.984375 3.421875 -5.828125 C 3.765625 -5.671875 4.023438 -5.445312 4.203125 -5.15625 L 3.53125 -4.734375 C 3.363281 -4.929688 3.171875 -5.070312 2.953125 -5.15625 C 2.742188 -5.238281 2.519531 -5.28125 2.28125 -5.28125 C 2.113281 -5.28125 1.957031 -5.25 1.8125 -5.1875 C 1.675781 -5.132812 1.5625 -5.070312 1.46875 -5 C 1.382812 -4.925781 1.320312 -4.835938 1.28125 -4.734375 C 1.25 -4.640625 1.234375 -4.535156 1.234375 -4.421875 C 1.234375 -4.347656 1.242188 -4.273438 1.265625 -4.203125 C 1.296875 -4.128906 1.351562 -4.050781 1.4375 -3.96875 C 1.519531 -3.882812 1.640625 -3.804688 1.796875 -3.734375 C 1.960938 -3.660156 2.1875 -3.585938 2.46875 -3.515625 C 2.8125 -3.429688 3.097656 -3.335938 3.328125 -3.234375 C 3.554688 -3.140625 3.75 -3.023438 3.90625 -2.890625 C 4.28125 -2.585938 4.46875 -2.179688 4.46875 -1.671875 Z M 4.46875 -1.671875 "/></g></g></g></svg>